<svg id="visual" viewBox="0 0 960 540" width="960" height="540" xmlns="http://www.w3.org/2000/svg" xmlns:xlink="http://www.w3.org/1999/xlink" version="1.1"><rect x="0" y="0" width="960" height="540" fill="#eccfd9"></rect><path d="M0 50L20 48C40 46 80 42 120 42.7C160 43.3 200 48.7 240 54.7C280 60.7 320 67.3 360 70.3C400 73.3 440 72.7 480 64.2C520 55.7 560 39.3 600 30.8C640 22.3 680 21.7 720 31.3C760 41 800 61 840 64C880 67 920 53 940 46L960 39L960 0L940 0C920 0 880 0 840 0C800 0 760 0 720 0C680 0 640 0 600 0C560 0 520 0 480 0C440 0 400 0 360 0C320 0 280 0 240 0C200 0 160 0 120 0C80 0 40 0 20 0L0 0Z" fill="#C780CD" stroke-linecap="round" stroke-linejoin="miter"></path></svg>